<svg xmlns="http://www.w3.org/2000/svg" xmlns:xlink="http://www.w3.org/1999/xlink" width="500" zoomAndPan="magnify" viewBox="0 0 375 374.999991" height="500" preserveAspectRatio="xMidYMid meet" version="1.0"><defs><g/><clipPath id="b00866e039"><path d="M 94.546875 139 L 126 139 L 126 235.292969 L 94.546875 235.292969 Z M 94.546875 139 " clip-rule="nonzero"/></clipPath><clipPath id="5f40f5c534"><path d="M 249.710938 139.535156 L 280.4375 139.535156 L 280.4375 235.292969 L 249.710938 235.292969 Z M 249.710938 139.535156 " clip-rule="nonzero"/></clipPath><clipPath id="de2f3e65b5"><path d="M 173 117.542969 L 202 117.542969 L 202 150 L 173 150 Z M 173 117.542969 " clip-rule="nonzero"/></clipPath></defs><path fill="#ffffff" d="M 157.929688 171.371094 C 155.648438 171.371094 153.523438 171.804688 151.554688 172.664062 C 149.582031 173.527344 147.871094 174.691406 146.425781 176.152344 C 144.976562 177.617188 143.832031 179.332031 142.984375 181.304688 C 142.136719 183.273438 141.714844 185.367188 141.714844 187.585938 C 141.714844 189.804688 142.136719 191.898438 142.984375 193.867188 C 143.832031 195.839844 144.976562 197.558594 146.425781 199.019531 C 147.871094 200.484375 149.582031 201.644531 151.554688 202.507812 C 153.523438 203.371094 155.648438 203.800781 157.929688 203.800781 C 160.175781 203.800781 162.285156 203.371094 164.257812 202.507812 C 166.226562 201.644531 167.945312 200.472656 169.410156 198.996094 C 170.871094 197.519531 172.023438 195.800781 172.871094 193.84375 C 173.71875 191.890625 174.144531 189.804688 174.144531 187.585938 C 174.144531 185.367188 173.71875 183.28125 172.871094 181.328125 C 172.023438 179.371094 170.871094 177.652344 169.410156 176.175781 C 167.945312 174.695312 166.226562 173.527344 164.257812 172.664062 C 162.285156 171.804688 160.175781 171.371094 157.929688 171.371094 Z M 183.796875 187.585938 C 183.796875 194.792969 181.273438 200.890625 176.222656 205.878906 C 171.109375 210.929688 165.011719 213.457031 157.929688 213.457031 C 150.78125 213.457031 144.683594 210.929688 139.636719 205.878906 C 134.582031 200.828125 132.058594 194.730469 132.058594 187.585938 C 132.058594 180.441406 134.582031 174.34375 139.636719 169.292969 C 144.683594 164.242188 150.78125 161.714844 157.929688 161.714844 C 165.011719 161.714844 171.109375 164.242188 176.222656 169.292969 C 178.746094 171.816406 180.632812 174.605469 181.878906 177.652344 C 183.128906 180.703125 183.765625 184.011719 183.796875 187.585938 " fill-opacity="1" fill-rule="nonzero"/><path fill="#ffffff" d="M 217.058594 171.371094 C 214.78125 171.371094 212.65625 171.804688 210.683594 172.664062 C 208.710938 173.527344 207.003906 174.691406 205.554688 176.152344 C 204.109375 177.617188 202.960938 179.332031 202.113281 181.304688 C 201.265625 183.273438 200.84375 185.367188 200.84375 187.585938 C 200.84375 189.804688 201.265625 191.898438 202.113281 193.867188 C 202.960938 195.839844 204.109375 197.558594 205.554688 199.019531 C 207.003906 200.484375 208.710938 201.644531 210.683594 202.507812 C 212.65625 203.371094 214.78125 203.800781 217.058594 203.800781 C 219.304688 203.800781 221.414062 203.371094 223.386719 202.507812 C 225.359375 201.644531 227.074219 200.472656 228.539062 198.996094 C 230 197.519531 231.15625 195.800781 232.003906 193.84375 C 232.847656 191.890625 233.273438 189.804688 233.273438 187.585938 C 233.273438 185.367188 232.847656 183.28125 232.003906 181.328125 C 231.15625 179.371094 230 177.652344 228.539062 176.175781 C 227.074219 174.695312 225.359375 173.527344 223.386719 172.664062 C 221.414062 171.804688 219.304688 171.371094 217.058594 171.371094 Z M 242.929688 187.585938 C 242.929688 194.792969 240.402344 200.890625 235.351562 205.878906 C 230.238281 210.929688 224.140625 213.457031 217.058594 213.457031 C 209.914062 213.457031 203.816406 210.929688 198.765625 205.878906 C 193.714844 200.828125 191.191406 194.730469 191.191406 187.585938 C 191.191406 180.441406 193.714844 174.34375 198.765625 169.292969 C 203.816406 164.242188 209.914062 161.714844 217.058594 161.714844 C 224.140625 161.714844 230.238281 164.242188 235.351562 169.292969 C 237.875 171.816406 239.761719 174.605469 241.011719 177.652344 C 242.257812 180.703125 242.894531 184.011719 242.929688 187.585938 " fill-opacity="1" fill-rule="nonzero"/><g clip-path="url(#b00866e039)"><path fill="#211d1d" d="M 120.417969 139.589844 C 121.804688 139.589844 122.949219 140.058594 123.859375 140.996094 C 124.765625 141.9375 125.222656 143.082031 125.222656 144.4375 C 125.222656 145.824219 124.765625 146.972656 123.859375 147.878906 C 122.949219 148.789062 121.804688 149.242188 120.417969 149.242188 C 116.597656 149.242188 114.6875 151.152344 114.6875 154.972656 L 114.6875 177.054688 C 114.6875 181.488281 113.671875 185 111.640625 187.585938 C 113.671875 190.171875 114.6875 193.683594 114.6875 198.117188 L 114.6875 220.199219 C 114.6875 224.019531 116.597656 225.929688 120.417969 225.929688 C 121.804688 225.929688 122.949219 226.382812 123.859375 227.292969 C 124.765625 228.199219 125.222656 229.347656 125.222656 230.734375 C 125.222656 232.117188 124.765625 233.273438 123.859375 234.199219 C 122.949219 235.121094 121.804688 235.582031 120.417969 235.582031 C 110.164062 235.582031 105.035156 230.457031 105.035156 220.199219 L 105.035156 198.117188 C 105.035156 194.300781 103.140625 192.390625 99.351562 192.390625 C 97.964844 192.390625 96.820312 191.9375 95.910156 191.027344 C 95 190.121094 94.546875 188.972656 94.546875 187.585938 C 94.546875 186.199219 95 185.050781 95.910156 184.144531 C 96.820312 183.238281 97.964844 182.78125 99.351562 182.78125 C 103.140625 182.78125 105.035156 180.871094 105.035156 177.054688 L 105.035156 154.972656 C 105.035156 144.714844 110.164062 139.589844 120.417969 139.589844 " fill-opacity="1" fill-rule="nonzero"/></g><g clip-path="url(#5f40f5c534)"><path fill="#211d1d" d="M 269.953125 154.972656 L 269.953125 177.054688 C 269.953125 180.871094 271.847656 182.78125 275.632812 182.78125 C 277.019531 182.78125 278.167969 183.238281 279.074219 184.144531 C 279.984375 185.050781 280.4375 186.199219 280.4375 187.585938 C 280.4375 188.972656 279.984375 190.121094 279.074219 191.027344 C 278.167969 191.9375 277.019531 192.390625 275.632812 192.390625 C 271.847656 192.390625 269.953125 194.300781 269.953125 198.117188 L 269.953125 220.199219 C 269.953125 230.457031 264.824219 235.582031 254.570312 235.582031 C 253.183594 235.582031 252.035156 235.121094 251.128906 234.199219 C 250.21875 233.273438 249.765625 232.117188 249.765625 230.734375 C 249.765625 229.347656 250.21875 228.199219 251.128906 227.292969 C 252.035156 226.382812 253.183594 225.929688 254.570312 225.929688 C 258.390625 225.929688 260.296875 224.019531 260.296875 220.199219 L 260.296875 198.117188 C 260.296875 193.683594 261.3125 190.171875 263.347656 187.585938 C 261.3125 185 260.296875 181.488281 260.296875 177.054688 L 260.296875 154.972656 C 260.296875 151.152344 258.390625 149.242188 254.570312 149.242188 C 253.183594 149.242188 252.035156 148.789062 251.128906 147.878906 C 250.21875 146.972656 249.765625 145.824219 249.765625 144.4375 C 249.765625 143.082031 250.21875 141.9375 251.128906 140.996094 C 252.035156 140.058594 253.183594 139.589844 254.570312 139.589844 C 264.824219 139.589844 269.953125 144.714844 269.953125 154.972656 " fill-opacity="1" fill-rule="nonzero"/></g><g clip-path="url(#de2f3e65b5)"><path fill="#211d1d" d="M 201.953125 143.417969 C 201.953125 144.21875 201.796875 144.964844 201.492188 145.660156 C 201.183594 146.351562 200.773438 146.960938 200.265625 147.484375 C 199.757812 148.007812 199.148438 148.414062 198.441406 148.707031 C 197.730469 149 196.996094 149.148438 196.226562 149.148438 C 194.808594 149.148438 193.589844 148.65625 192.574219 147.667969 C 191.558594 146.683594 190.726562 145.472656 190.078125 144.042969 C 189.433594 142.609375 188.964844 141.132812 188.671875 139.609375 C 188.378906 138.082031 188.234375 136.660156 188.234375 135.335938 C 188.234375 129.882812 190.558594 124.371094 195.207031 118.796875 C 196.039062 117.964844 196.980469 117.550781 198.027344 117.550781 C 199.101562 117.550781 200.027344 117.933594 200.796875 118.703125 C 201.566406 119.472656 201.953125 120.398438 201.953125 121.476562 C 201.953125 122 201.84375 122.539062 201.628906 123.09375 C 200.242188 126.480469 199.550781 129.699219 199.550781 132.746094 C 199.550781 135.644531 200.179688 138.445312 201.445312 141.15625 C 201.785156 141.925781 201.953125 142.679688 201.953125 143.417969 Z M 186.753906 143.417969 C 186.753906 144.21875 186.601562 144.964844 186.292969 145.660156 C 185.984375 146.351562 185.574219 146.960938 185.066406 147.484375 C 184.558594 148.007812 183.953125 148.414062 183.242188 148.707031 C 182.535156 149 181.796875 149.148438 181.027344 149.148438 C 179.609375 149.148438 178.394531 148.65625 177.375 147.667969 C 176.359375 146.683594 175.527344 145.472656 174.882812 144.042969 C 174.234375 142.609375 173.765625 141.132812 173.472656 139.609375 C 173.179688 138.082031 173.035156 136.660156 173.035156 135.335938 C 173.035156 129.882812 175.359375 124.371094 180.007812 118.796875 C 180.839844 117.964844 181.78125 117.550781 182.828125 117.550781 C 183.90625 117.550781 184.828125 117.933594 185.597656 118.703125 C 186.371094 119.472656 186.753906 120.398438 186.753906 121.476562 C 186.753906 122 186.644531 122.539062 186.429688 123.09375 C 185.046875 126.480469 184.351562 129.699219 184.351562 132.746094 C 184.351562 135.644531 184.984375 138.445312 186.246094 141.15625 C 186.585938 141.925781 186.753906 142.679688 186.753906 143.417969 " fill-opacity="1" fill-rule="nonzero"/></g><g fill="#4a87ce" fill-opacity="1"><g transform="translate(140.969315, 194.817455)"><g><path d="M 11.765625 0.59375 C 9.203125 0.59375 6.789062 0.382812 4.53125 -0.03125 L 4.53125 -31.75 C 6.613281 -32 9.035156 -32.125 11.796875 -32.125 C 14.554688 -32.125 17.050781 -31.75 19.28125 -31 C 21.519531 -30.25 23.390625 -29.179688 24.890625 -27.796875 C 27.929688 -25.015625 29.453125 -21.113281 29.453125 -16.09375 C 29.453125 -10.488281 27.757812 -6.226562 24.375 -3.3125 C 21.34375 -0.707031 17.140625 0.59375 11.765625 0.59375 Z M 10.6875 -5.1875 C 11.71875 -5 12.742188 -4.90625 13.765625 -4.90625 C 14.796875 -4.90625 15.90625 -5.109375 17.09375 -5.515625 C 18.28125 -5.921875 19.304688 -6.546875 20.171875 -7.390625 C 22.046875 -9.191406 22.984375 -11.816406 22.984375 -15.265625 C 22.984375 -20.929688 20.914062 -24.410156 16.78125 -25.703125 C 15.425781 -26.128906 13.851562 -26.34375 12.0625 -26.34375 L 11.421875 -26.34375 C 11.191406 -26.34375 10.945312 -26.335938 10.6875 -26.328125 Z M 10.6875 -5.1875 "/></g></g></g><g fill="#4a87ce" fill-opacity="1"><g transform="translate(173.306337, 194.817455)"><g><path d="M 6.65625 -3.75 C 5.21875 -5.125 4.082031 -6.773438 3.25 -8.703125 C 2.425781 -10.628906 2.015625 -12.742188 2.015625 -15.046875 C 2.015625 -17.347656 2.398438 -19.523438 3.171875 -21.578125 C 3.953125 -23.628906 5.0625 -25.4375 6.5 -27 C 7.9375 -28.570312 9.671875 -29.816406 11.703125 -30.734375 C 13.742188 -31.660156 16.03125 -32.125 18.5625 -32.125 C 22.925781 -32.125 26.601562 -30.75 29.59375 -28 C 32.78125 -25.0625 34.375 -21.09375 34.375 -16.09375 C 34.375 -11.257812 32.734375 -7.238281 29.453125 -4.03125 C 27.429688 -2.050781 25.019531 -0.691406 22.21875 0.046875 C 20.84375 0.410156 19.234375 0.59375 17.390625 0.59375 C 15.546875 0.59375 13.65625 0.210938 11.71875 -0.546875 C 9.789062 -1.304688 8.101562 -2.375 6.65625 -3.75 Z M 8.609375 -15.359375 C 8.609375 -13.890625 8.851562 -12.539062 9.34375 -11.3125 C 9.832031 -10.082031 10.507812 -9.023438 11.375 -8.140625 C 13.226562 -6.265625 15.609375 -5.328125 18.515625 -5.328125 C 21.285156 -5.328125 23.507812 -6.222656 25.1875 -8.015625 C 26.894531 -9.859375 27.75 -12.378906 27.75 -15.578125 C 27.75 -18.578125 26.929688 -21.082031 25.296875 -23.09375 C 23.546875 -25.25 21.144531 -26.328125 18.09375 -26.328125 C 15.132812 -26.328125 12.785156 -25.234375 11.046875 -23.046875 C 9.421875 -21.003906 8.609375 -18.441406 8.609375 -15.359375 Z M 8.609375 -15.359375 "/></g></g></g><g fill="#4a87ce" fill-opacity="1"><g transform="translate(209.697348, 194.817455)"><g><path d="M 15.453125 0.140625 C 14.703125 0.046875 12.753906 0 9.609375 0 L 8.84375 0 L 8.84375 -26.21875 L 4.15625 -26.21875 C 2.757812 -26.21875 1.929688 -26.144531 1.671875 -26 C 1.421875 -25.863281 1.226562 -25.742188 1.09375 -25.640625 L 1.015625 -25.65625 L 1.015625 -31.734375 L 1.09375 -31.796875 C 1.613281 -31.617188 3.019531 -31.53125 5.3125 -31.53125 L 20.171875 -31.53125 C 21.566406 -31.53125 22.390625 -31.601562 22.640625 -31.75 C 22.898438 -31.894531 23.097656 -32.019531 23.234375 -32.125 L 23.3125 -32.109375 L 23.3125 -26.03125 L 23.234375 -25.96875 C 22.710938 -26.132812 21.304688 -26.21875 19.015625 -26.21875 L 15.453125 -26.21875 Z M 15.453125 0.140625 "/></g></g></g><g fill="#737373" fill-opacity="1"><g transform="translate(159.789916, 214.12872)"><g><path d="M 2.546875 -9.625 C 3.273438 -9.625 3.8125 -9.410156 4.15625 -8.984375 C 4.5 -8.554688 4.671875 -7.976562 4.671875 -7.25 L 4.671875 -6.984375 L 3.671875 -6.984375 L 3.671875 -7.296875 C 3.671875 -7.734375 3.582031 -8.070312 3.40625 -8.3125 C 3.226562 -8.550781 2.953125 -8.671875 2.578125 -8.671875 C 2.191406 -8.671875 1.910156 -8.550781 1.734375 -8.3125 C 1.566406 -8.070312 1.484375 -7.738281 1.484375 -7.3125 C 1.484375 -6.957031 1.5625 -6.648438 1.71875 -6.390625 C 1.882812 -6.128906 2.082031 -5.882812 2.3125 -5.65625 C 2.550781 -5.4375 2.804688 -5.21875 3.078125 -5 C 3.359375 -4.789062 3.613281 -4.554688 3.84375 -4.296875 C 4.082031 -4.046875 4.28125 -3.757812 4.4375 -3.4375 C 4.601562 -3.113281 4.6875 -2.726562 4.6875 -2.28125 C 4.6875 -1.5625 4.507812 -0.984375 4.15625 -0.546875 C 3.8125 -0.117188 3.269531 0.09375 2.53125 0.09375 C 1.800781 0.09375 1.257812 -0.117188 0.90625 -0.546875 C 0.5625 -0.984375 0.390625 -1.5625 0.390625 -2.28125 L 0.390625 -2.828125 L 1.390625 -2.828125 L 1.390625 -2.234375 C 1.390625 -1.796875 1.476562 -1.457031 1.65625 -1.21875 C 1.84375 -0.988281 2.125 -0.875 2.5 -0.875 C 2.882812 -0.875 3.164062 -0.988281 3.34375 -1.21875 C 3.53125 -1.457031 3.625 -1.796875 3.625 -2.234375 C 3.625 -2.585938 3.539062 -2.894531 3.375 -3.15625 C 3.21875 -3.414062 3.019531 -3.65625 2.78125 -3.875 C 2.550781 -4.09375 2.300781 -4.304688 2.03125 -4.515625 C 1.757812 -4.734375 1.503906 -4.96875 1.265625 -5.21875 C 1.023438 -5.476562 0.828125 -5.769531 0.671875 -6.09375 C 0.515625 -6.414062 0.4375 -6.800781 0.4375 -7.25 C 0.4375 -7.988281 0.609375 -8.566406 0.953125 -8.984375 C 1.296875 -9.410156 1.828125 -9.625 2.546875 -9.625 Z M 2.546875 -9.625 "/></g></g></g><g fill="#737373" fill-opacity="1"><g transform="translate(170.311042, 214.12872)"><g><path d="M 1.9375 0 L 1.9375 -8.5625 L 0.171875 -8.5625 L 0.171875 -9.53125 L 4.75 -9.53125 L 4.75 -8.5625 L 3 -8.5625 L 3 0 Z M 1.9375 0 "/></g></g></g><g fill="#737373" fill-opacity="1"><g transform="translate(180.709553, 214.12872)"><g><path d="M 1.546875 -2.25 C 1.546875 -1.8125 1.632812 -1.472656 1.8125 -1.234375 C 1.988281 -0.992188 2.273438 -0.875 2.671875 -0.875 C 3.054688 -0.875 3.335938 -0.992188 3.515625 -1.234375 C 3.691406 -1.472656 3.78125 -1.8125 3.78125 -2.25 L 3.78125 -9.53125 L 4.765625 -9.53125 L 4.765625 -2.296875 C 4.765625 -1.578125 4.59375 -0.992188 4.25 -0.546875 C 3.90625 -0.109375 3.363281 0.109375 2.625 0.109375 C 1.90625 0.109375 1.367188 -0.109375 1.015625 -0.546875 C 0.671875 -0.992188 0.5 -1.578125 0.5 -2.296875 L 0.5 -9.53125 L 1.546875 -9.53125 Z M 1.546875 -2.25 "/></g></g></g><g fill="#737373" fill-opacity="1"><g transform="translate(191.435031, 214.12872)"><g><path d="M 2.78125 -9.53125 C 3.519531 -9.53125 4.066406 -9.316406 4.421875 -8.890625 C 4.773438 -8.472656 4.953125 -7.898438 4.953125 -7.171875 L 4.953125 -2.359375 C 4.953125 -1.617188 4.773438 -1.039062 4.421875 -0.625 C 4.066406 -0.207031 3.519531 0 2.78125 0 L 0.546875 0 L 0.546875 -9.53125 Z M 2.765625 -0.96875 C 3.148438 -0.96875 3.429688 -1.082031 3.609375 -1.3125 C 3.796875 -1.539062 3.890625 -1.875 3.890625 -2.3125 L 3.890625 -7.21875 C 3.890625 -7.65625 3.796875 -7.988281 3.609375 -8.21875 C 3.429688 -8.445312 3.144531 -8.5625 2.75 -8.5625 L 1.609375 -8.5625 L 1.609375 -0.96875 Z M 2.765625 -0.96875 "/></g></g></g><g fill="#737373" fill-opacity="1"><g transform="translate(202.283114, 214.12872)"><g><path d="M 1.609375 -9.53125 L 1.609375 0 L 0.546875 0 L 0.546875 -9.53125 Z M 1.609375 -9.53125 "/></g></g></g><g fill="#737373" fill-opacity="1"><g transform="translate(209.888837, 214.12872)"><g><path d="M 0.46875 -7.234375 C 0.46875 -7.972656 0.644531 -8.554688 1 -8.984375 C 1.363281 -9.410156 1.910156 -9.625 2.640625 -9.625 C 3.378906 -9.625 3.929688 -9.410156 4.296875 -8.984375 C 4.660156 -8.554688 4.84375 -7.972656 4.84375 -7.234375 L 4.84375 -2.296875 C 4.84375 -1.578125 4.660156 -1 4.296875 -0.5625 C 3.929688 -0.125 3.378906 0.09375 2.640625 0.09375 C 1.910156 0.09375 1.363281 -0.125 1 -0.5625 C 0.644531 -1 0.46875 -1.578125 0.46875 -2.296875 Z M 1.515625 -2.25 C 1.515625 -1.8125 1.609375 -1.472656 1.796875 -1.234375 C 1.984375 -0.992188 2.265625 -0.875 2.640625 -0.875 C 3.035156 -0.875 3.320312 -0.992188 3.5 -1.234375 C 3.6875 -1.472656 3.78125 -1.8125 3.78125 -2.25 L 3.78125 -7.296875 C 3.78125 -7.722656 3.6875 -8.054688 3.5 -8.296875 C 3.320312 -8.546875 3.035156 -8.671875 2.640625 -8.671875 C 2.265625 -8.671875 1.984375 -8.546875 1.796875 -8.296875 C 1.609375 -8.054688 1.515625 -7.722656 1.515625 -7.296875 Z M 1.515625 -2.25 "/></g></g></g></svg>